# xmcd
#
# Track frame offsets:
#	150
#	21797
#	59497
#	101582
#	132782
#	162663
#	188704
#	223279
#
# Disc length: 3391 seconds
#
# Revision: 0
# Processed by: cddbd v1.5.2PL0 Copyright (c) Steve Scherf et al.
# Submitted via: audiograbber 1.83.01
#
DISCID=740d3d08
DTITLE=Grateful Dead - 93-09-18 Madison Square Garden, New York NY
DYEAR=1900
DGENRE=
TTITLE0=Crowd and Tuning
TTITLE1=Mississippi Half-Step Uptown Toodeloo
TTITLE2=Little Red Rooster
TTITLE3=Althea
TTITLE4=When I Paint My Masterpiece
TTITLE5=Brown Eyed Women
TTITLE6=Cassidy
TTITLE7=Loose Lucy
EXTD=
EXTT0=
EXTT1=
EXTT2=
EXTT3=
EXTT4=
EXTT5=
EXTT6=
EXTT7=
PLAYORDER=
